<?xml version="1.0" encoding="utf-8"?>
<!-- Generator: Adobe Illustrator 22.1.0, SVG Export Plug-In . SVG Version: 6.00 Build 0)  -->
<svg version="1.1" id="Layer_1" xmlns="http://www.w3.org/2000/svg" xmlns:xlink="http://www.w3.org/1999/xlink" x="0px" y="0px"
	 viewBox="0 0 1280 800" style="enable-background:new 0 0 1280 800;" xml:space="preserve">
<style type="text/css">
	.st0{fill:#F2F2F2;}
	.st1{fill:#FFFFFF;}
	.st2{fill:url(#SVGID_1_);}
	.st3{fill:url(#SVGID_2_);}
	.st4{opacity:0.6;clip-path:url(#SVGID_4_);}
	.st5{fill:url(#SVGID_5_);}
	.st6{opacity:0.68;clip-path:url(#SVGID_7_);}
	.st7{fill:url(#Bottom_1_);}
	.st8{fill:url(#SVGID_8_);}
	.st9{fill:url(#SVGID_9_);}
	.st10{fill:#333333;}
</style>
<g id="Background">
	<rect class="st0" width="1280" height="800"/>
</g>
<g id="Shadow">
	<g>
		
			<image style="overflow:visible;enable-background:new    ;" width="888" height="91" xlink:href="BDAF077AA7096696.png"  transform="matrix(1 0 0 1 185 678)">
		</image>
	</g>
	<rect class="st1" width="1280" height="800"/>
</g>
<g id="Desktop">
	<g id="Base">
		
			<linearGradient id="SVGID_1_" gradientUnits="userSpaceOnUse" x1="512.5995" y1="666.1" x2="745.4014" y2="666.1" gradientTransform="matrix(1 0 0 1 0 64)">
			<stop  offset="0" style="stop-color:#797A7E"/>
			<stop  offset="2.501285e-02" style="stop-color:#929397"/>
			<stop  offset="5.907834e-02" style="stop-color:#ACAEB1"/>
			<stop  offset="9.822828e-02" style="stop-color:#C2C4C6"/>
			<stop  offset="0.1439" style="stop-color:#D3D5D7"/>
			<stop  offset="0.2005" style="stop-color:#DEE0E2"/>
			<stop  offset="0.2798" style="stop-color:#E5E7E9"/>
			<stop  offset="0.5" style="stop-color:#E7E9EB"/>
			<stop  offset="0.7202" style="stop-color:#E5E7E9"/>
			<stop  offset="0.7995" style="stop-color:#DEE0E2"/>
			<stop  offset="0.8561" style="stop-color:#D3D5D7"/>
			<stop  offset="0.9018" style="stop-color:#C2C4C6"/>
			<stop  offset="0.9409" style="stop-color:#ACAEB1"/>
			<stop  offset="0.975" style="stop-color:#929397"/>
			<stop  offset="1" style="stop-color:#797A7E"/>
		</linearGradient>
		<path class="st2" d="M745.4,730.2v-2.9H629H512.6v2.9c0,0-0.2,2.7,8.3,2.7s108.2,0,108.2,0s99.6,0,108.2,0
			C745.7,732.9,745.4,730.2,745.4,730.2z"/>
		
			<linearGradient id="SVGID_2_" gradientUnits="userSpaceOnUse" x1="629.0005" y1="658.905" x2="629.0005" y2="669.227" gradientTransform="matrix(1 0 0 1 0 64)">
			<stop  offset="0.6646" style="stop-color:#FFFFFF"/>
			<stop  offset="0.7926" style="stop-color:#FDFDFD"/>
			<stop  offset="0.8387" style="stop-color:#F6F6F7"/>
			<stop  offset="0.8716" style="stop-color:#EBEBEB"/>
			<stop  offset="0.8981" style="stop-color:#DADADB"/>
			<stop  offset="0.9209" style="stop-color:#C4C4C6"/>
			<stop  offset="0.941" style="stop-color:#A8A9AC"/>
			<stop  offset="0.9588" style="stop-color:#898A8D"/>
			<stop  offset="0.9664" style="stop-color:#797A7E"/>
		</linearGradient>
		<path class="st3" d="M745.4,730.2v-2.9H629H512.6v2.9c0,0-0.2,2.7,8.3,2.7s108.2,0,108.2,0s99.6,0,108.2,0
			C745.7,732.9,745.4,730.2,745.4,730.2z"/>
		<g>
			<g>
				<g>
					<g>
						<g>
							<defs>
								<path id="SVGID_3_" d="M513.4,728.1c0,0-3.7,2.7,5,3.5s110.7,0,110.7,0s101.9,0.8,110.7,0c8.7-0.8,5-3.5,5-3.5H513.4z"/>
							</defs>
							<clipPath id="SVGID_4_">
								<use xlink:href="#SVGID_3_"  style="overflow:visible;"/>
							</clipPath>
							<g class="st4">
								
									<image style="overflow:visible;enable-background:new    ;" width="306" height="76" xlink:href="BDAF077AA7096695.png"  transform="matrix(1 0 0 1 476 692)">
								</image>
							</g>
						</g>
					</g>
				</g>
			</g>
		</g>
		<g>
			
				<linearGradient id="SVGID_5_" gradientUnits="userSpaceOnUse" x1="629.0273" y1="563.1173" x2="629.0273" y2="664.28" gradientTransform="matrix(1 0 0 1 0 64)">
				<stop  offset="3.563625e-02" style="stop-color:#878787"/>
				<stop  offset="0.1763" style="stop-color:#A5A6A7"/>
				<stop  offset="0.4152" style="stop-color:#E1E2E4"/>
				<stop  offset="0.5052" style="stop-color:#F0F0F1"/>
				<stop  offset="0.5793" style="stop-color:#F6F6F6"/>
				<stop  offset="0.6006" style="stop-color:#EDEDED"/>
				<stop  offset="0.6356" style="stop-color:#D3D4D5"/>
				<stop  offset="0.6799" style="stop-color:#ABACAE"/>
				<stop  offset="0.7141" style="stop-color:#87888C"/>
				<stop  offset="0.7742" style="stop-color:#8B8C90"/>
				<stop  offset="0.7971" style="stop-color:#8E8F94"/>
				<stop  offset="0.9215" style="stop-color:#D2D3D6"/>
				<stop  offset="1" style="stop-color:#F9FAFC"/>
			</linearGradient>
			<path class="st5" d="M744.6,726c0,0-20.4-13.6-24.6-16.9s-5.7-3.8-7.9-13.2c-2.8-12.2-7.3-69-7.3-69H629h-75.9
				c0,0-4.4,56.8-7.3,69c-2.2,9.4-3.7,9.9-7.9,13.2S513.4,726,513.4,726s-3.7,2.7,5,3.5s110.7,0,110.7,0s101.9,0.8,110.7,0
				C748.4,728.7,744.6,726,744.6,726z"/>
		</g>
		<g>
			<g>
				<g>
					<g>
						<g>
							<defs>
								<path id="SVGID_6_" d="M744.6,726c0,0-20.4-13.6-24.6-16.9s-5.7-3.8-7.9-13.2c-2.8-12.2-7.3-69-7.3-69H629h-75.9
									c0,0-4.4,56.8-7.3,69c-2.2,9.4-3.7,9.9-7.9,13.2S513.4,726,513.4,726s-3.7,2.7,5,3.5s110.7,0,110.7,0s101.9,0.8,110.7,0
									C748.4,728.7,744.6,726,744.6,726z"/>
							</defs>
							<clipPath id="SVGID_7_">
								<use xlink:href="#SVGID_6_"  style="overflow:visible;"/>
							</clipPath>
							<g class="st6">
								
									<image style="overflow:visible;enable-background:new    ;" width="244" height="141" xlink:href="BDAF077AA7096692.png"  transform="matrix(1 0 0 1 507 639)">
								</image>
							</g>
						</g>
					</g>
				</g>
			</g>
		</g>
	</g>
	
		<linearGradient id="Bottom_1_" gradientUnits="userSpaceOnUse" x1="245.8" y1="527.9" x2="1012.1" y2="527.9" gradientTransform="matrix(1 0 0 1 0 64)">
		<stop  offset="0.1604" style="stop-color:#A6A7AB"/>
		<stop  offset="1" style="stop-color:#E2E3E5"/>
	</linearGradient>
	<path id="Bottom" class="st7" d="M245.8,608.3c0,10.3,8.4,18.6,18.7,18.6h728.9c10.3,0,18.7-8.3,18.7-18.6v-51.4H245.8V608.3z"/>
	<path id="Border" d="M993.4,104H264.6c-10.3,0-18.7,8.3-18.7,18.6V557h766.3V122.6C1012.2,112.3,1003.8,104,993.4,104z"/>
	<g id="Camera">
		
			<linearGradient id="SVGID_8_" gradientUnits="userSpaceOnUse" x1="629" y1="49.4452" x2="629" y2="55.5946" gradientTransform="matrix(1 0 0 1 0 64)">
			<stop  offset="0" style="stop-color:#000000"/>
			<stop  offset="0.2885" style="stop-color:#030303"/>
			<stop  offset="0.4812" style="stop-color:#0B0B0C"/>
			<stop  offset="0.646" style="stop-color:#1A1A1B"/>
			<stop  offset="0.7949" style="stop-color:#2E2E30"/>
			<stop  offset="0.9321" style="stop-color:#49494B"/>
			<stop  offset="1" style="stop-color:#59595C"/>
		</linearGradient>
		<ellipse class="st8" cx="629" cy="116.7" rx="3" ry="2.9"/>
		<ellipse cx="629" cy="116.7" rx="1.8" ry="1.8"/>
		
			<linearGradient id="SVGID_9_" gradientUnits="userSpaceOnUse" x1="628.7" y1="50.8387" x2="628.7" y2="54.5552" gradientTransform="matrix(1 0 0 1 0 64)">
			<stop  offset="0" style="stop-color:#000000"/>
			<stop  offset="0.2885" style="stop-color:#030303"/>
			<stop  offset="0.4812" style="stop-color:#0B0B0C"/>
			<stop  offset="0.646" style="stop-color:#1A1A1B"/>
			<stop  offset="0.7949" style="stop-color:#2E2E30"/>
			<stop  offset="0.9321" style="stop-color:#49494B"/>
			<stop  offset="1" style="stop-color:#59595C"/>
		</linearGradient>
		<ellipse class="st9" cx="628.7" cy="116.7" rx="1.5" ry="1.5"/>
	</g>
	<g id="_x5B_YOUR_SCREEN_HERE_x5D__1_">
		<rect id="_x5B_YOUR_SCREEN_HERE_x5D__2_" x="276.9" y="134.6" class="st10" width="704.2" height="393.2"/>
	</g>
	
		<image style="overflow:visible;enable-background:new    ;" width="2560" height="1600" xlink:href="spotify.png"  transform="matrix(0.2751 0 0 0.2458 276.9 134.6)">
	</image>
</g>
<g>
	
		<image style="overflow:visible;enable-background:new    ;" width="898" height="95" xlink:href="BDAF077AA709669E.png"  transform="matrix(0.9718 0 0 0.9718 189.6607 686.9218)">
	</image>
</g>
</svg>
